<svg xmlns="http://www.w3.org/2000/svg" xmlns:xlink="http://www.w3.org/1999/xlink" viewBox="0 0 1032 622.36"><defs><style>.cls-1{isolation:isolate;}.cls-2{fill:url(#linear-gradient);}.cls-3{fill:url(#New_Gradient_Swatch_copy_35);}.cls-4{fill:url(#linear-gradient-2);}.cls-10,.cls-11,.cls-16,.cls-17,.cls-23,.cls-25,.cls-26,.cls-30,.cls-34,.cls-38,.cls-42,.cls-43,.cls-47,.cls-49,.cls-5,.cls-54,.cls-55,.cls-7{mix-blend-mode:color-dodge;}.cls-5{fill:url(#radial-gradient);}.cls-6{fill:#b086cc;}.cls-7{fill:url(#radial-gradient-2);}.cls-8{fill:url(#linear-gradient-3);}.cls-9{fill:url(#New_Gradient_Swatch_copy_35-2);}.cls-10{fill:url(#radial-gradient-3);}.cls-11{fill:url(#radial-gradient-4);}.cls-12{fill:url(#New_Gradient_Swatch_copy_23);}.cls-13{fill:url(#New_Gradient_Swatch_copy_35-3);}.cls-14,.cls-18{fill:#ebdef3;}.cls-15{fill:url(#linear-gradient-4);}.cls-16{fill:url(#radial-gradient-5);}.cls-17{fill:url(#radial-gradient-6);}.cls-18{opacity:0.5;}.cls-19{fill:url(#linear-gradient-5);}.cls-20{fill:#4b61b8;}.cls-21{fill:url(#linear-gradient-6);}.cls-22{fill:#6a7ecc;}.cls-23{fill:url(#linear-gradient-7);}.cls-24{fill:url(#linear-gradient-8);}.cls-25{fill:url(#linear-gradient-9);}.cls-26{fill:url(#linear-gradient-10);}.cls-27{fill:url(#New_Gradient_Swatch_copy_23-2);}.cls-28,.cls-36,.cls-45{mix-blend-mode:multiply;}.cls-28{fill:url(#linear-gradient-11);}.cls-29{fill:url(#New_Gradient_Swatch_copy_35-4);}.cls-30{fill:url(#radial-gradient-7);}.cls-31{fill:url(#linear-gradient-12);}.cls-32{fill:url(#linear-gradient-13);}.cls-33{fill:url(#linear-gradient-14);}.cls-34{fill:url(#linear-gradient-15);}.cls-35{fill:url(#New_Gradient_Swatch_copy_31);}.cls-36{fill:url(#linear-gradient-16);}.cls-37{fill:url(#linear-gradient-17);}.cls-38{fill:url(#linear-gradient-18);}.cls-39{fill:url(#New_Gradient_Swatch_copy_23-3);}.cls-40{fill:url(#New_Gradient_Swatch_copy_35-5);}.cls-41{fill:url(#linear-gradient-19);}.cls-42{fill:url(#radial-gradient-8);}.cls-43{fill:url(#radial-gradient-9);}.cls-44{fill:url(#New_Gradient_Swatch_copy_23-4);}.cls-45{fill:url(#linear-gradient-20);}.cls-46{fill:url(#New_Gradient_Swatch_copy_35-6);}.cls-47{fill:url(#radial-gradient-10);}.cls-48{fill:url(#linear-gradient-21);}.cls-49{fill:url(#radial-gradient-11);}.cls-50{fill:url(#linear-gradient-22);}.cls-51{fill:url(#linear-gradient-23);}.cls-52{fill:url(#New_Gradient_Swatch_copy_23-5);}.cls-53{fill:url(#New_Gradient_Swatch_copy_35-7);}.cls-54{fill:url(#radial-gradient-12);}.cls-55{fill:url(#radial-gradient-13);}</style><linearGradient id="linear-gradient" x1="925.45" y1="257.71" x2="1013.08" y2="403.32" gradientUnits="userSpaceOnUse"><stop offset="0.01" stop-color="#c1a1d5"/><stop offset="0.03" stop-color="#cdb3dd"/><stop offset="0.07" stop-color="#e3d4ec"/><stop offset="0.12" stop-color="#f2ecf6"/><stop offset="0.15" stop-color="#fcfafd"/><stop offset="0.19" stop-color="#fff"/><stop offset="0.23" stop-color="#f9f5fb"/><stop offset="0.31" stop-color="#e9dbf2"/><stop offset="0.39" stop-color="#d1b4e3"/><stop offset="0.45" stop-color="#b395d6"/><stop offset="0.51" stop-color="#9c7dcb"/><stop offset="0.57" stop-color="#8e6ec5"/><stop offset="0.61" stop-color="#8969c3"/><stop offset="0.76" stop-color="#9471c6"/><stop offset="1" stop-color="#b086cc"/></linearGradient><linearGradient id="New_Gradient_Swatch_copy_35" x1="-1359.92" y1="364.16" x2="-1106.58" y2="307.36" gradientTransform="translate(2173.19 669.78) rotate(30.31)" gradientUnits="userSpaceOnUse"><stop offset="0" stop-color="#9f79c8"/><stop offset="0.14" stop-color="#a580cb"/><stop offset="0.33" stop-color="#b492d3"/><stop offset="0.55" stop-color="#cdb0e1"/><stop offset="0.58" stop-color="#d1b4e3"/><stop offset="0.76" stop-color="#dbc4e9"/><stop offset="1" stop-color="#ebdef3"/></linearGradient><linearGradient id="linear-gradient-2" x1="942.05" y1="319.2" x2="963.07" y2="263.79" gradientTransform="translate(298.32 -425.69) rotate(30.31)" gradientUnits="userSpaceOnUse"><stop offset="0" stop-color="#65318a"/><stop offset="1" stop-color="#b086cc"/></linearGradient><radialGradient id="radial-gradient" cx="-1210.63" cy="315.64" r="48.33" gradientTransform="translate(2172.39)" gradientUnits="userSpaceOnUse"><stop offset="0" stop-color="#fff"/><stop offset="0.02" stop-color="#f7f7f7"/><stop offset="0.13" stop-color="#bebebe"/><stop offset="0.25" stop-color="#8b8b8b"/><stop offset="0.37" stop-color="#606060"/><stop offset="0.49" stop-color="#3e3e3e"/><stop offset="0.62" stop-color="#232323"/><stop offset="0.74" stop-color="#0f0f0f"/><stop offset="0.87" stop-color="#040404"/><stop offset="1"/></radialGradient><radialGradient id="radial-gradient-2" cx="2346.53" cy="-4567.65" r="69.32" gradientTransform="matrix(1, 0, 0, 0.45, -1395.64, 2337.44)" gradientUnits="userSpaceOnUse"><stop offset="0" stop-color="#dc3daa"/><stop offset="0.07" stop-color="#bd3492"/><stop offset="0.2" stop-color="#8b276b"/><stop offset="0.33" stop-color="#601b4a"/><stop offset="0.46" stop-color="#3e1130"/><stop offset="0.59" stop-color="#230a1b"/><stop offset="0.72" stop-color="#0f040c"/><stop offset="0.86" stop-color="#040103"/><stop offset="1"/></radialGradient><linearGradient id="linear-gradient-3" x1="871.11" y1="308.41" x2="939.34" y2="421.79" xlink:href="#linear-gradient"/><linearGradient id="New_Gradient_Swatch_copy_35-2" x1="-1429.45" y1="409.86" x2="-1208.39" y2="360.31" gradientTransform="translate(2186.38 719.57) rotate(30.31)" xlink:href="#New_Gradient_Swatch_copy_35"/><radialGradient id="radial-gradient-3" cx="-1299.18" cy="367.53" r="42.17" xlink:href="#radial-gradient"/><radialGradient id="radial-gradient-4" cx="2279.34" cy="-4524.69" r="60.49" gradientTransform="matrix(1, 0, 0, 0.45, -1383.2, 2361.52)" xlink:href="#radial-gradient-2"/><linearGradient id="New_Gradient_Swatch_copy_23" x1="726.86" y1="337.93" x2="843.69" y2="532.08" gradientUnits="userSpaceOnUse"><stop offset="0.01" stop-color="#c1a1d5"/><stop offset="0.05" stop-color="#c8abda"/><stop offset="0.11" stop-color="#dac6e6"/><stop offset="0.2" stop-color="#f7f2f9"/><stop offset="0.22" stop-color="#fff"/><stop offset="0.25" stop-color="#f9f5fb"/><stop offset="0.3" stop-color="#e9dbf2"/><stop offset="0.36" stop-color="#d1b4e3"/><stop offset="0.43" stop-color="#b395d6"/><stop offset="0.49" stop-color="#9c7dcb"/><stop offset="0.56" stop-color="#8e6ec5"/><stop offset="0.61" stop-color="#8969c3"/><stop offset="0.76" stop-color="#9471c6"/><stop offset="1" stop-color="#b086cc"/></linearGradient><linearGradient id="New_Gradient_Swatch_copy_35-3" x1="-1665" y1="511.65" x2="-1286.48" y2="426.8" gradientTransform="translate(2207.37 811.13) rotate(30.31)" xlink:href="#New_Gradient_Swatch_copy_35"/><linearGradient id="linear-gradient-4" x1="698.08" y1="464.54" x2="729.33" y2="430.98" gradientTransform="translate(331.91 -285.55) rotate(30.31)" xlink:href="#linear-gradient-2"/><radialGradient id="radial-gradient-5" cx="-1441.94" cy="439.17" r="72.21" xlink:href="#radial-gradient"/><radialGradient id="radial-gradient-6" cx="2174.7" cy="-4555.05" r="90.79" gradientTransform="matrix(1, 0, 0, 0.45, -1380.57, 2402.32)" xlink:href="#radial-gradient-2"/><linearGradient id="linear-gradient-5" x1="816.77" y1="471.04" x2="829.59" y2="471.04" gradientTransform="matrix(1, 0, 0, 1, 0, 0)" xlink:href="#linear-gradient-2"/><linearGradient id="linear-gradient-6" x1="1952.06" y1="-723.59" x2="2025.79" y2="-723.59" gradientTransform="matrix(-0.87, 0.5, 1, 0.58, 2808.81, -488.44)" gradientUnits="userSpaceOnUse"><stop offset="0" stop-color="#363885"/><stop offset="1" stop-color="#12054e"/><stop offset="1" stop-color="#10054d"/></linearGradient><linearGradient id="linear-gradient-7" x1="393.35" y1="48.48" x2="340.49" y2="117.28" gradientUnits="userSpaceOnUse"><stop offset="0" stop-color="#9f19ab"/><stop offset="0.1" stop-color="#81148a"/><stop offset="0.24" stop-color="#5a0e60"/><stop offset="0.39" stop-color="#39093e"/><stop offset="0.54" stop-color="#200523"/><stop offset="0.69" stop-color="#0e020f"/><stop offset="0.84" stop-color="#040104"/><stop offset="1"/></linearGradient><linearGradient id="linear-gradient-8" x1="1952.69" y1="-561.81" x2="2026.42" y2="-561.81" xlink:href="#linear-gradient-6"/><linearGradient id="linear-gradient-9" x1="462.33" y1="79.54" x2="272.52" y2="96.11" xlink:href="#linear-gradient-7"/><linearGradient id="linear-gradient-10" x1="530.1" y1="132.38" x2="516.08" y2="247.04" xlink:href="#linear-gradient-7"/><linearGradient id="New_Gradient_Swatch_copy_23-2" x1="625.69" y1="444.74" x2="693.93" y2="558.12" xlink:href="#New_Gradient_Swatch_copy_23"/><linearGradient id="linear-gradient-11" x1="693.7" y1="429.06" x2="629.29" y2="524.96" gradientUnits="userSpaceOnUse"><stop offset="0.01" stop-color="#c1a1d5"/><stop offset="0.13" stop-color="#c8abda"/><stop offset="0.33" stop-color="#dac6e6"/><stop offset="0.6" stop-color="#f7f2f9"/><stop offset="0.67" stop-color="#fff"/></linearGradient><linearGradient id="New_Gradient_Swatch_copy_35-4" x1="-1674.87" y1="546.19" x2="-1453.81" y2="496.64" gradientTransform="translate(2172.39)" xlink:href="#New_Gradient_Swatch_copy_35"/><radialGradient id="radial-gradient-7" cx="-1544.6" cy="503.86" r="42.17" xlink:href="#radial-gradient"/><linearGradient id="linear-gradient-12" x1="1954.52" y1="-325.27" x2="2028.25" y2="-325.27" xlink:href="#linear-gradient-6"/><linearGradient id="linear-gradient-13" x1="1955.14" y1="-163.5" x2="2028.88" y2="-163.5" xlink:href="#linear-gradient-6"/><linearGradient id="linear-gradient-14" x1="2239" y1="-726.06" x2="2312.73" y2="-726.06" xlink:href="#linear-gradient-6"/><linearGradient id="linear-gradient-15" x1="187.3" y1="192.79" x2="91.12" y2="240.56" xlink:href="#linear-gradient-7"/><radialGradient id="New_Gradient_Swatch_copy_31" cx="599.13" cy="239.85" r="111.76" gradientUnits="userSpaceOnUse"><stop offset="0.01" stop-color="#fff"/><stop offset="0.16" stop-color="#e6d7f0"/><stop offset="0.28" stop-color="#d7bde7"/><stop offset="0.36" stop-color="#d1b4e3"/><stop offset="0.48" stop-color="#c4a4dc"/><stop offset="0.71" stop-color="#a17bc9"/><stop offset="0.72" stop-color="#9f79c8"/><stop offset="0.99" stop-color="#9f79c8"/><stop offset="1" stop-color="#9f79c8"/></radialGradient><linearGradient id="linear-gradient-16" x1="631.75" y1="361.98" x2="540.03" y2="206.56" xlink:href="#linear-gradient-11"/><linearGradient id="linear-gradient-17" x1="2236.95" y1="-560.87" x2="2310.69" y2="-560.87" xlink:href="#linear-gradient-6"/><linearGradient id="linear-gradient-18" x1="287.95" y1="274.54" x2="272.02" y2="361.81" xlink:href="#linear-gradient-7"/><linearGradient id="New_Gradient_Swatch_copy_23-3" x1="487.79" y1="475.09" x2="604.62" y2="669.24" xlink:href="#New_Gradient_Swatch_copy_23"/><linearGradient id="New_Gradient_Swatch_copy_35-5" x1="-1904.07" y1="648.81" x2="-1525.55" y2="563.96" gradientTransform="translate(2243.91 950.53) rotate(30.31)" xlink:href="#New_Gradient_Swatch_copy_35"/><linearGradient id="linear-gradient-19" x1="459.01" y1="601.7" x2="490.26" y2="568.13" gradientTransform="translate(368.45 -146.14) rotate(30.31)" xlink:href="#linear-gradient-2"/><radialGradient id="radial-gradient-8" cx="-1681.01" cy="576.33" r="72.21" xlink:href="#radial-gradient"/><radialGradient id="radial-gradient-9" cx="1918.81" cy="-4461.58" r="59.77" gradientTransform="matrix(0.92, -0.38, 0.17, 0.42, -433.39, 3074.11)" xlink:href="#radial-gradient-2"/><linearGradient id="New_Gradient_Swatch_copy_23-4" x1="380.96" y1="588.71" x2="449.2" y2="702.1" xlink:href="#New_Gradient_Swatch_copy_23"/><linearGradient id="linear-gradient-20" x1="471.76" y1="653.46" x2="307.42" y2="620.34" xlink:href="#linear-gradient-11"/><linearGradient id="New_Gradient_Swatch_copy_35-6" x1="-1919.6" y1="690.16" x2="-1698.54" y2="640.61" gradientTransform="translate(2260.84 1005.26) rotate(30.31)" xlink:href="#New_Gradient_Swatch_copy_35"/><radialGradient id="radial-gradient-10" cx="-1789.33" cy="647.83" r="42.17" xlink:href="#radial-gradient"/><linearGradient id="linear-gradient-21" x1="354.81" y1="671" x2="377.31" y2="654.02" gradientTransform="translate(385.69 -90.98) rotate(30.31)" xlink:href="#linear-gradient-2"/><radialGradient id="radial-gradient-11" cx="1686.94" cy="-4324.32" r="28.84" gradientTransform="matrix(0.92, -0.38, 0.17, 0.42, -433.39, 3074.11)" xlink:href="#radial-gradient-2"/><linearGradient id="linear-gradient-22" x1="2238.78" y1="-324.33" x2="2312.52" y2="-324.33" xlink:href="#linear-gradient-6"/><linearGradient id="linear-gradient-23" x1="2242.08" y1="-165.97" x2="2315.82" y2="-165.97" xlink:href="#linear-gradient-6"/><linearGradient id="New_Gradient_Swatch_copy_23-5" x1="336.39" y1="654.22" x2="365.06" y2="701.87" xlink:href="#New_Gradient_Swatch_copy_23"/><linearGradient id="New_Gradient_Swatch_copy_35-7" x1="-1884.95" y1="693.92" x2="-1791.92" y2="673.06" gradientTransform="translate(2172.39)" xlink:href="#New_Gradient_Swatch_copy_35"/><radialGradient id="radial-gradient-12" cx="-1830.12" cy="676.1" r="17.75" xlink:href="#radial-gradient"/><radialGradient id="radial-gradient-13" cx="1632.49" cy="-4271.61" r="14.69" gradientTransform="matrix(0.92, -0.38, 0.17, 0.42, -433.39, 3074.11)" xlink:href="#radial-gradient-2"/></defs><g class="cls-1"><g id="Layer_1" data-name="Layer 1"><path class="cls-2" d="M1018.1,346c0,15.71-5.42,26.83-14.23,32.21-.27.17-33.94,11.91-34.17,12-8.09,4.52-2.92-5.73-15.19-12.82-24.71-14.27-44.74-48.81-44.74-77.16,0-14-13-14.14-5-18.82.22-.13,27-26.73,27.2-26.87,9.15-5,21.64-4,35.42,3.92C995.39,274.68,1018.1,313.85,1018.1,346Z" transform="translate(-6 -230.06)"/><ellipse class="cls-3" cx="936.38" cy="336.38" rx="36.41" ry="63.07" transform="translate(-47.76 288.51) rotate(-30.31)"/><ellipse class="cls-4" cx="934.98" cy="337.86" rx="34.11" ry="59.08" transform="translate(-48.7 288) rotate(-30.31)"/><path class="cls-5" d="M938.53,284c-11.84-6.84-22.6-7.76-30.61-3.76,7.46-2.08,16.72-.53,26.75,5.26,24.7,14.27,44.73,48.81,44.73,77.16,0,14.76-5.44,24.92-14.13,29.27,10.92-3.06,18-13.92,18-30.77C983.27,332.78,963.24,298.23,938.53,284Z" transform="translate(-6 -230.06)"/><path class="cls-6" d="M995.8,382.6a1.37,1.37,0,0,1-.71-2.53c8.59-5.26,13.32-16.08,13.32-30.48,0-31.1-22-69.12-49.15-84.77-12.64-7.3-24.52-8.66-33.45-3.83a1.37,1.37,0,0,1-1.3-2.41c9.79-5.3,22.62-3.93,36.12,3.87,27.86,16.08,50.52,55.17,50.52,87.14,0,15.39-5.19,27-14.63,32.81A1.33,1.33,0,0,1,995.8,382.6Z" transform="translate(-6 -230.06)"/><ellipse class="cls-7" cx="950.83" cy="269.27" rx="69.32" ry="31.39" transform="translate(-36.98 151.57) rotate(-22.34)"/><path class="cls-8" d="M972.72,359.65c0,12.08-4.17,20.64-11,24.78l-81.64,48.21c-7,3.94-2.54-5-13.25-11.19-21.56-12.45-39-42.6-39-67.34,0-12.23-11.31-12.33-4.38-16.41l83-48.4c7-3.81,16.65-3.1,27.25,3C955.24,304.76,972.72,334.91,972.72,359.65Z" transform="translate(-6 -230.06)"/><ellipse class="cls-9" cx="851.06" cy="385.62" rx="31.77" ry="55.03" transform="translate(-84.28 252.18) rotate(-30.31)"/><path class="cls-10" d="M852.94,339.89c-10.34-6-19.73-6.77-26.71-3.27,6.51-1.83,14.59-.47,23.34,4.59,21.55,12.44,39,42.59,39,67.33,0,12.88-4.74,21.74-12.33,25.53,9.53-2.66,15.7-12.15,15.7-26.84C892,382.49,874.5,352.34,852.94,339.89Z" transform="translate(-6 -230.06)"/><path class="cls-6" d="M946.57,395.39a1.37,1.37,0,0,1-.71-2.54c6.71-4.1,10.41-12.59,10.41-23.89,0-24.53-17.39-54.54-38.78-66.88-9.92-5.74-19.23-6.81-26.21-3a1.37,1.37,0,0,1-1.3-2.41c7.85-4.25,18.11-3.16,28.88,3.06C941,312.49,959,343.55,959,369c0,12.29-4.16,21.61-11.72,26.23A1.42,1.42,0,0,1,946.57,395.39Z" transform="translate(-6 -230.06)"/><path class="cls-6" d="M950.79,374.29a1.37,1.37,0,0,1-1.37-1.37c0-10.66-3.42-22.9-9.63-34.46a1.39,1.39,0,0,1,.56-1.86,1.37,1.37,0,0,1,1.86.56c6.42,11.95,9.95,24.65,9.95,35.76A1.37,1.37,0,0,1,950.79,374.29Z" transform="translate(-6 -230.06)"/><path class="cls-6" d="M946.23,376.83a1.37,1.37,0,0,1-1.37-1.37c0-10.66-3.42-22.9-9.63-34.46a1.37,1.37,0,1,1,2.41-1.3c6.42,11.95,10,24.65,10,35.76A1.37,1.37,0,0,1,946.23,376.83Z" transform="translate(-6 -230.06)"/><path class="cls-6" d="M941.67,379.37A1.37,1.37,0,0,1,940.3,378c0-10.66-3.42-22.9-9.63-34.46a1.37,1.37,0,1,1,2.41-1.3c6.42,11.95,10,24.65,10,35.76A1.37,1.37,0,0,1,941.67,379.37Z" transform="translate(-6 -230.06)"/><path class="cls-6" d="M937.1,381.91a1.36,1.36,0,0,1-1.36-1.37c0-10.66-3.43-22.9-9.64-34.46a1.37,1.37,0,0,1,2.42-1.3c6.42,12,10,24.65,10,35.76A1.37,1.37,0,0,1,937.1,381.91Z" transform="translate(-6 -230.06)"/><path class="cls-6" d="M932.54,384.45a1.37,1.37,0,0,1-1.37-1.37c0-10.66-3.42-22.9-9.63-34.46a1.37,1.37,0,1,1,2.41-1.3c6.43,11.95,10,24.65,10,35.76A1.37,1.37,0,0,1,932.54,384.45Z" transform="translate(-6 -230.06)"/><path class="cls-6" d="M928,387a1.37,1.37,0,0,1-1.37-1.37c0-10.66-3.42-22.9-9.63-34.46a1.37,1.37,0,1,1,2.41-1.3c6.42,11.95,10,24.65,10,35.76A1.37,1.37,0,0,1,928,387Z" transform="translate(-6 -230.06)"/><path class="cls-6" d="M923.42,389.53a1.36,1.36,0,0,1-1.37-1.36c0-10.67-3.42-22.91-9.63-34.47a1.37,1.37,0,1,1,2.41-1.3c6.42,12,9.95,24.65,9.95,35.77A1.36,1.36,0,0,1,923.42,389.53Z" transform="translate(-6 -230.06)"/><path class="cls-6" d="M881.28,372.38a1.37,1.37,0,0,1-.66-2.56l66.77-37.26a1.37,1.37,0,1,1,1.34,2.39L882,372.21A1.34,1.34,0,0,1,881.28,372.38Z" transform="translate(-6 -230.06)"/><path class="cls-6" d="M890.84,407.73a1.37,1.37,0,0,1-.67-2.56L957,367.91a1.37,1.37,0,1,1,1.33,2.39l-66.77,37.26A1.34,1.34,0,0,1,890.84,407.73Z" transform="translate(-6 -230.06)"/><ellipse class="cls-11" cx="896.08" cy="312.79" rx="60.49" ry="27.39" transform="translate(-57.64 134.02) rotate(-22.34)"/><path class="cls-12" d="M900.84,425.67c0,20.69-7.14,35.34-18.75,42.44-.35.21-139.42,82.33-139.78,82.53-12.08,6.76-4.35-8.57-22.69-19.16-36.92-21.31-66.84-72.93-66.84-115.28,0-20.95-19.37-21.12-7.51-28.11.33-.2,141.73-82.69,142.07-82.87,12-6.52,28.51-5.32,46.66,5.16C870.91,331.69,900.84,383.31,900.84,425.67Z" transform="translate(-6 -230.06)"/><path class="cls-6" d="M817.54,507.7a1.38,1.38,0,0,1-1.17-.66,1.37,1.37,0,0,1,.46-1.88c11.67-7.13,18.09-21.79,18.09-41.27,0-41.86-29.67-93-66.15-114.11-17.11-9.87-33.21-11.7-45.32-5.14a1.37,1.37,0,1,1-1.31-2.4c13-7,30-5.2,48,5.17,37.23,21.5,67.52,73.75,67.52,116.48,0,20.47-6.89,36-19.4,43.61A1.45,1.45,0,0,1,817.54,507.7Z" transform="translate(-6 -230.06)"/><path class="cls-6" d="M869.35,476.7a1.37,1.37,0,0,1-.72-2.54c11.67-7.13,18.1-21.79,18.1-41.27,0-41.86-29.68-93.05-66.16-114.11-17.11-9.87-33.2-11.69-45.32-5.14a1.36,1.36,0,1,1-1.3-2.4c13-7,30-5.2,48,5.17,37.24,21.5,67.53,73.75,67.53,116.48,0,20.47-6.9,36-19.41,43.61A1.41,1.41,0,0,1,869.35,476.7Z" transform="translate(-6 -230.06)"/><ellipse class="cls-13" cx="692.54" cy="470.15" rx="54.4" ry="94.23" transform="translate(-148.61 183.72) rotate(-30.31)"/><path class="cls-6" d="M745.38,488.61c4.78,2.76,8.65,9.44,8.65,14.92s-3.87,7.68-8.65,4.93-8.64-9.44-8.64-14.92S740.61,485.86,745.38,488.61Z" transform="translate(-6 -230.06)"/><path class="cls-6" d="M703,415.5c0,5.48-3.87,7.68-8.64,4.93s-8.65-9.44-8.65-14.92,3.87-7.68,8.65-4.92S703,410,703,415.5Z" transform="translate(-6 -230.06)"/><path class="cls-6" d="M664.37,403.34c3.38,5.82,3.38,12.1,0,14s-8.85-1.24-12.23-7.06-3.37-12.11,0-14S661,397.51,664.37,403.34Z" transform="translate(-6 -230.06)"/><path class="cls-6" d="M643.31,429.68c4.78,2.76,8.65,9.44,8.65,14.92s-3.87,7.68-8.65,4.92-8.65-9.43-8.65-14.91S638.54,426.93,643.31,429.68Z" transform="translate(-6 -230.06)"/><path class="cls-14" d="M701.72,533.47c0,5.48-3.87,7.69-8.65,4.93s-8.64-9.43-8.64-14.91,3.87-7.68,8.64-4.93S701.72,528,701.72,533.47Z" transform="translate(-6 -230.06)"/><path class="cls-6" d="M696.21,530.29c0,2-1.41,2.79-3.14,1.79a6.91,6.91,0,0,1-3.13-5.41c0-2,1.4-2.79,3.13-1.79A6.93,6.93,0,0,1,696.21,530.29Z" transform="translate(-6 -230.06)"/><path class="cls-14" d="M701.72,416.35c0,5.48-3.87,7.68-8.65,4.93s-8.64-9.44-8.64-14.92,3.87-7.68,8.64-4.93S701.72,410.87,701.72,416.35Z" transform="translate(-6 -230.06)"/><path class="cls-6" d="M696.21,413.17c0,2-1.41,2.78-3.14,1.78a6.91,6.91,0,0,1-3.13-5.41c0-2,1.4-2.78,3.13-1.78A6.92,6.92,0,0,1,696.21,413.17Z" transform="translate(-6 -230.06)"/><path class="cls-14" d="M735.27,528.68c3.38,5.82,3.38,12.11,0,14s-8.85-1.24-12.22-7.06-3.38-12.1,0-14S731.9,522.86,735.27,528.68Z" transform="translate(-6 -230.06)"/><path class="cls-6" d="M731.38,530.9c1.22,2.11,1.22,4.39,0,5.09s-3.21-.45-4.44-2.56-1.22-4.39,0-5.09S730.15,528.79,731.38,530.9Z" transform="translate(-6 -230.06)"/><path class="cls-14" d="M663.1,404.19c3.37,5.82,3.37,12.1,0,14s-8.85-1.24-12.23-7.06-3.38-12.11,0-14S659.72,398.36,663.1,404.19Z" transform="translate(-6 -230.06)"/><path class="cls-6" d="M659.2,406.41c1.23,2.11,1.23,4.39,0,5.09s-3.21-.45-4.43-2.56-1.23-4.39,0-5.09S658,404.3,659.2,406.41Z" transform="translate(-6 -230.06)"/><path class="cls-14" d="M744.11,489.46c4.77,2.76,8.64,9.44,8.64,14.92s-3.87,7.68-8.64,4.93-8.65-9.44-8.65-14.92S739.33,486.71,744.11,489.46Z" transform="translate(-6 -230.06)"/><path class="cls-6" d="M744.11,495.79a6.92,6.92,0,0,1,3.14,5.41c0,2-1.41,2.78-3.14,1.78a6.92,6.92,0,0,1-3.14-5.41C741,495.59,742.38,494.79,744.11,495.79Z" transform="translate(-6 -230.06)"/><path class="cls-14" d="M642,430.53c4.77,2.76,8.64,9.44,8.64,14.91s-3.87,7.69-8.64,4.93-8.65-9.43-8.65-14.91S637.26,427.78,642,430.53Z" transform="translate(-6 -230.06)"/><path class="cls-6" d="M642,436.85a6.92,6.92,0,0,1,3.13,5.41c0,2-1.4,2.79-3.13,1.79a6.89,6.89,0,0,1-3.14-5.41C638.9,436.65,640.3,435.85,642,436.85Z" transform="translate(-6 -230.06)"/><path class="cls-6" d="M724.32,438c3.38-1.93,8.85,1.24,12.23,7.06s3.37,12.1,0,14-8.85-1.24-12.23-7.06S720.94,439.87,724.32,438Z" transform="translate(-6 -230.06)"/><path class="cls-14" d="M723.05,438.8c3.37-1.93,8.85,1.23,12.22,7.06s3.38,12.1,0,14-8.85-1.24-12.22-7.06S719.67,440.72,723.05,438.8Z" transform="translate(-6 -230.06)"/><path class="cls-6" d="M726.94,445.52c1.23-.7,3.21.45,4.44,2.56s1.22,4.39,0,5.09-3.21-.45-4.44-2.56S725.72,446.22,726.94,445.52Z" transform="translate(-6 -230.06)"/><path class="cls-14" d="M650.87,480c3.38-1.93,8.85,1.24,12.23,7.06s3.37,12.1,0,14-8.85-1.24-12.23-7.06S647.49,481.87,650.87,480Z" transform="translate(-6 -230.06)"/><path class="cls-6" d="M654.77,486.67c1.22-.7,3.21.45,4.43,2.56s1.23,4.39,0,5.09-3.21-.45-4.43-2.56S653.54,487.37,654.77,486.67Z" transform="translate(-6 -230.06)"/><polygon class="cls-6" points="710.16 325.08 660.35 153.97 738.93 108.56 740.3 110.93 663.58 155.26 712.79 324.31 710.16 325.08"/><polygon class="cls-6" points="748.63 248.25 748.21 248.2 624.91 233.83 625.22 231.11 748.11 245.43 825.61 204.92 826.88 207.35 748.63 248.25"/><polygon class="cls-6" points="747.58 306.61 746.82 305.8 624.62 175.38 626.62 173.5 748.06 303.13 825.54 256.77 826.94 259.12 747.58 306.61"/><polygon class="cls-6" points="661.86 295.29 659.39 294.12 711.75 183.65 787.31 137.87 788.73 140.21 713.87 185.56 661.86 295.29"/><ellipse class="cls-15" cx="693.07" cy="469.92" rx="32.28" ry="55.91" transform="matrix(0.86, -0.5, 0.5, 0.86, -148.42, 183.97)"/><path class="cls-16" d="M695.75,391.85c-17.7-10.22-33.78-11.6-45.73-5.62,11.14-3.12,25-.79,40,7.86,36.92,21.31,66.84,72.93,66.84,115.29,0,22-8.12,37.23-21.11,43.72,16.32-4.56,26.88-20.8,26.88-46C762.58,464.78,732.66,413.16,695.75,391.85Z" transform="translate(-6 -230.06)"/><path class="cls-6" d="M762.38,474.18a1.35,1.35,0,0,1-1.32-1c-5.82-22.25-18.28-45.05-34.2-62.57a1.37,1.37,0,0,1,2-1.84c16.2,17.83,28.89,41.06,34.81,63.72a1.36,1.36,0,0,1-1,1.67A1.32,1.32,0,0,1,762.38,474.18Z" transform="translate(-6 -230.06)"/><path class="cls-6" d="M768,471.12a1.37,1.37,0,0,1-1.33-1c-5.83-22.3-18.32-45.15-34.27-62.7a1.37,1.37,0,0,1,2-1.85c16.24,17.87,28.95,41.15,34.89,63.86a1.35,1.35,0,0,1-1.32,1.71Z" transform="translate(-6 -230.06)"/><path class="cls-6" d="M773.69,468.06a1.35,1.35,0,0,1-1.32-1C766.53,444.7,754,421.79,738,404.2a1.37,1.37,0,1,1,2-1.85c16.27,17.91,29,41.24,35,64a1.38,1.38,0,0,1-1,1.67A1.45,1.45,0,0,1,773.69,468.06Z" transform="translate(-6 -230.06)"/><path class="cls-6" d="M779.35,465a1.38,1.38,0,0,1-1.33-1c-5.85-22.39-18.4-45.35-34.42-63a1.37,1.37,0,1,1,2-1.85c16.31,18,29.08,41.33,35,64.14a1.37,1.37,0,0,1-1,1.67A1.33,1.33,0,0,1,779.35,465Z" transform="translate(-6 -230.06)"/><path class="cls-6" d="M785,462a1.36,1.36,0,0,1-1.32-1c-5.87-22.44-18.44-45.45-34.5-63.12a1.37,1.37,0,0,1,2-1.85c16.34,18,29.14,41.42,35.12,64.28a1.37,1.37,0,0,1-1,1.67A1.41,1.41,0,0,1,785,462Z" transform="translate(-6 -230.06)"/><path class="cls-6" d="M790.66,458.89a1.36,1.36,0,0,1-1.32-1c-5.88-22.49-18.49-45.55-34.58-63.26a1.37,1.37,0,1,1,2-1.85c16.38,18,29.21,41.51,35.19,64.42a1.36,1.36,0,0,1-1,1.67A1.48,1.48,0,0,1,790.66,458.89Z" transform="translate(-6 -230.06)"/><path class="cls-6" d="M796.32,455.83a1.38,1.38,0,0,1-1.33-1c-5.89-22.55-18.52-45.66-34.65-63.41a1.37,1.37,0,0,1,.09-1.94,1.39,1.39,0,0,1,1.94.09c16.41,18.07,29.27,41.6,35.27,64.57a1.38,1.38,0,0,1-1,1.67A1.32,1.32,0,0,1,796.32,455.83Z" transform="translate(-6 -230.06)"/><path class="cls-6" d="M802,452.77a1.37,1.37,0,0,1-1.32-1c-5.91-22.6-18.57-45.76-34.73-63.55a1.37,1.37,0,0,1,.09-1.94,1.39,1.39,0,0,1,1.94.09c16.45,18.11,29.33,41.69,35.35,64.71a1.37,1.37,0,0,1-1,1.67A1.45,1.45,0,0,1,802,452.77Z" transform="translate(-6 -230.06)"/><path class="cls-6" d="M807.63,449.71a1.37,1.37,0,0,1-1.33-1C800.39,426,787.7,402.83,771.5,385a1.37,1.37,0,1,1,2-1.84C790,401.3,802.93,424.94,809,448a1.36,1.36,0,0,1-1,1.67A1.32,1.32,0,0,1,807.63,449.71Z" transform="translate(-6 -230.06)"/><path class="cls-6" d="M813.28,446.65a1.36,1.36,0,0,1-1.32-1c-5.93-22.7-18.65-46-34.88-63.83a1.37,1.37,0,1,1,2-1.84c16.53,18.18,29.47,41.87,35.51,65a1.37,1.37,0,0,1-1,1.67A1.39,1.39,0,0,1,813.28,446.65Z" transform="translate(-6 -230.06)"/><path class="cls-6" d="M818.94,443.6a1.36,1.36,0,0,1-1.32-1c-6-22.75-18.69-46.06-35-64a1.37,1.37,0,1,1,2-1.84c16.57,18.22,29.53,42,35.58,65.12a1.36,1.36,0,0,1-1,1.67A1.48,1.48,0,0,1,818.94,443.6Z" transform="translate(-6 -230.06)"/><path class="cls-6" d="M824.6,440.54a1.38,1.38,0,0,1-1.33-1c-6-22.79-18.73-46.16-35-64.11a1.37,1.37,0,1,1,2-1.84c16.6,18.26,29.6,42.05,35.66,65.26a1.36,1.36,0,0,1-1,1.67A1.33,1.33,0,0,1,824.6,440.54Z" transform="translate(-6 -230.06)"/><rect class="cls-6" x="832.48" y="448.03" width="58.78" height="2.74" transform="translate(-115.58 252.07) rotate(-29.47)"/><rect class="cls-6" x="832.48" y="439.97" width="58.78" height="2.74" transform="translate(-111.61 251.03) rotate(-29.47)"/><rect class="cls-6" x="821.43" y="397.5" width="58.78" height="2.74" transform="translate(-92.12 240.51) rotate(-29.49)"/><rect class="cls-6" x="818.04" y="391.13" width="58.78" height="2.74" transform="translate(-89.42 238.06) rotate(-29.5)"/><rect class="cls-6" x="796.81" y="358.01" width="58.78" height="2.74" transform="translate(-75.87 223.27) rotate(-29.49)"/><rect class="cls-6" x="790.81" y="352.45" width="61.62" height="2.74" transform="translate(-73.29 224.19) rotate(-29.74)"/><ellipse class="cls-17" cx="794.07" cy="339.85" rx="90.79" ry="41.11" transform="translate(-75.58 97.28) rotate(-22.34)"/><path class="cls-18" d="M819.91,461.12c-4.78,2.76-8.65,9.43-8.65,14.91s3.87,7.69,8.65,4.93,8.64-9.43,8.64-14.91S824.68,458.36,819.91,461.12Z" transform="translate(-6 -230.06)"/><path class="cls-19" d="M819.91,467.44a6.89,6.89,0,0,0-3.14,5.41c0,2,1.4,2.79,3.14,1.79a6.91,6.91,0,0,0,3.13-5.41C823,467.24,821.64,466.44,819.91,467.44Z" transform="translate(-6 -230.06)"/><polygon class="cls-20" points="407.19 155.38 474.58 116.47 474.56 114.09 318.43 26.32 250.96 62.64 251.04 65.23 407.19 155.38"/><polygon class="cls-21" points="470.76 113.69 318.7 25.9 254.86 62.76 406.92 150.55 470.76 113.69"/><polygon class="cls-22" points="439.23 133.37 441.01 132.35 286.39 43.08 284.62 44.1 439.23 133.37"/><polygon class="cls-22" points="329.42 106.32 331.47 107.51 396.2 70.13 394.15 68.95 329.42 106.32"/><polygon class="cls-23" points="407.19 152.76 474.58 113.85 318.43 23.7 251.04 62.6 407.19 152.76"/><polygon class="cls-20" points="568.42 249.1 635.81 210.19 635.79 207.81 479.66 120.04 412.19 156.36 412.26 158.95 568.42 249.1"/><polygon class="cls-22" points="568.42 246.48 635.81 207.57 479.66 117.42 412.26 156.33 568.42 246.48"/><polygon class="cls-24" points="631.99 207.41 479.93 119.62 416.09 156.49 568.14 244.28 631.99 207.41"/><polygon class="cls-22" points="600.46 227.1 602.23 226.07 447.62 136.8 445.84 137.83 600.46 227.1"/><polygon class="cls-22" points="490.65 200.04 492.69 201.23 557.43 163.85 555.38 162.67 490.65 200.04"/><polygon class="cls-25" points="407.19 152.76 474.58 113.85 318.43 23.7 251.04 62.6 407.19 152.76"/><polygon class="cls-26" points="568.42 246.48 635.81 207.57 479.66 117.42 412.26 156.33 568.42 246.48"/><path class="cls-27" d="M727.3,496c0,12.09-4.17,20.65-10.95,24.79-.2.13-81.42,48.09-81.63,48.2-7.06,3.95-2.55-5-13.26-11.19-21.56-12.44-39-42.59-39-67.33,0-12.23-11.31-12.33-4.39-16.41l83-48.4c7-3.81,16.65-3.11,27.25,3C709.82,441.09,727.3,471.24,727.3,496Z" transform="translate(-6 -230.06)"/><path class="cls-28" d="M727.3,496c0,12.09-4.17,20.65-10.95,24.79-.2.13-81.42,48.09-81.63,48.2-7.06,3.95-2.55-5-13.26-11.19-21.56-12.44-39-42.59-39-67.33,0-12.23-11.31-12.33-4.39-16.41l83-48.4c7-3.81,16.65-3.11,27.25,3C709.82,441.09,727.3,471.24,727.3,496Z" transform="translate(-6 -230.06)"/><path class="cls-29" d="M644.68,544.49c0,24.74-17.47,34.7-39,22.26s-39-42.6-39-67.33,17.48-34.71,39-22.26S644.68,519.75,644.68,544.49Z" transform="translate(-6 -230.06)"/><path class="cls-30" d="M607.52,476.22c-10.33-6-19.72-6.77-26.71-3.28,6.51-1.82,14.59-.46,23.34,4.59,21.56,12.45,39,42.6,39,67.33,0,12.88-4.75,21.75-12.33,25.54,9.53-2.67,15.7-12.15,15.7-26.85C646.56,518.81,629.08,488.67,607.52,476.22Z" transform="translate(-6 -230.06)"/><polygon class="cls-20" points="803.38 386.6 870.77 347.69 870.75 345.31 714.62 257.53 647.15 293.86 647.22 296.44 803.38 386.6"/><polygon class="cls-22" points="803.38 383.98 870.77 345.06 714.62 254.91 647.22 293.82 803.38 383.98"/><polygon class="cls-31" points="866.95 344.91 714.89 257.12 651.05 293.98 803.1 381.77 866.95 344.91"/><polygon class="cls-22" points="835.42 364.59 837.19 363.56 682.58 274.3 680.8 275.32 835.42 364.59"/><polygon class="cls-22" points="725.61 337.54 727.65 338.72 792.39 301.35 790.34 300.17 725.61 337.54"/><polygon class="cls-20" points="964.61 480.32 1032 441.41 1031.98 439.03 875.85 351.25 808.38 387.58 808.45 390.16 964.61 480.32"/><polygon class="cls-22" points="964.61 477.7 1032 438.79 875.85 348.63 808.45 387.54 964.61 477.7"/><polygon class="cls-32" points="1028.18 438.63 876.12 350.84 812.27 387.7 964.33 475.49 1028.18 438.63"/><polygon class="cls-22" points="996.65 458.31 998.42 457.29 843.8 368.02 842.03 369.04 996.65 458.31"/><polygon class="cls-22" points="886.84 431.26 888.88 432.44 953.62 395.07 951.57 393.89 886.84 431.26"/><polygon class="cls-20" points="156.23 297.42 223.62 258.51 223.6 256.13 67.47 168.36 0 204.68 0.07 207.27 156.23 297.42"/><polygon class="cls-22" points="156.23 294.8 223.62 255.89 67.47 165.74 0.07 204.65 156.23 294.8"/><polygon class="cls-33" points="219.8 255.73 67.74 167.94 3.9 204.81 155.95 292.6 219.8 255.73"/><polygon class="cls-22" points="188.27 275.42 190.04 274.39 35.43 185.12 33.65 186.15 188.27 275.42"/><polygon class="cls-22" points="78.46 248.37 80.51 249.55 145.24 212.17 143.19 210.99 78.46 248.37"/><polygon class="cls-34" points="156.23 294.8 223.62 255.89 67.47 165.74 0.07 204.65 156.23 294.8"/><circle class="cls-35" cx="590.78" cy="292.55" r="79.62"/><circle class="cls-36" cx="590.78" cy="292.55" r="79.62"/><polygon class="cls-20" points="323.19 391.78 390.58 352.87 390.56 350.49 234.43 262.72 166.96 299.04 167.03 301.63 323.19 391.78"/><polygon class="cls-22" points="323.19 389.16 390.58 350.25 234.43 260.1 167.03 299 323.19 389.16"/><polygon class="cls-37" points="386.76 350.09 234.71 262.3 170.86 299.16 322.91 386.95 386.76 350.09"/><polygon class="cls-22" points="355.23 369.77 357 368.75 202.39 279.48 200.61 280.51 355.23 369.77"/><polygon class="cls-22" points="245.42 342.72 247.47 343.91 312.2 306.53 310.15 305.35 245.42 342.72"/><polygon class="cls-38" points="323.19 389.16 390.58 350.25 234.43 260.1 167.03 299 323.19 389.16"/><path class="cls-39" d="M661.76,562.83c0,20.69-7.14,35.34-18.74,42.44-.35.21-139.42,82.33-139.78,82.53-12.08,6.75-4.35-8.57-22.7-19.16-36.91-21.31-66.83-72.93-66.83-115.29,0-20.94-19.37-21.11-7.51-28.11.33-.19,141.73-82.68,142.07-82.86,12-6.52,28.5-5.32,46.66,5.16C631.84,468.85,661.76,520.47,661.76,562.83Z" transform="translate(-6 -230.06)"/><path class="cls-6" d="M622.21,619a1.36,1.36,0,0,1-1.17-.66,1.38,1.38,0,0,1,.45-1.88c11.67-7.13,18.1-21.78,18.1-41.27,0-41.85-29.68-93-66.16-114.1-17.1-9.87-33.19-11.7-45.32-5.14a1.37,1.37,0,0,1-1.3-2.41c13-7,30-5.2,48,5.18,37.24,21.5,67.53,73.74,67.53,116.47,0,20.48-6.89,36-19.41,43.61A1.32,1.32,0,0,1,622.21,619Z" transform="translate(-6 -230.06)"/><ellipse class="cls-40" cx="453.47" cy="607.31" rx="54.4" ry="94.23" transform="translate(-250.51 81.82) rotate(-30.31)"/><path class="cls-6" d="M506.31,625.77c4.78,2.76,8.65,9.44,8.65,14.92s-3.87,7.68-8.65,4.92-8.64-9.43-8.64-14.91S501.54,623,506.31,625.77Z" transform="translate(-6 -230.06)"/><path class="cls-6" d="M463.92,552.66c0,5.47-3.87,7.68-8.64,4.92s-8.65-9.43-8.65-14.91,3.87-7.68,8.65-4.93S463.92,547.18,463.92,552.66Z" transform="translate(-6 -230.06)"/><path class="cls-6" d="M425.3,540.5c3.38,5.82,3.38,12.1,0,14s-8.85-1.24-12.23-7.06-3.37-12.11,0-14S421.92,534.67,425.3,540.5Z" transform="translate(-6 -230.06)"/><path class="cls-6" d="M404.24,566.84c4.77,2.76,8.64,9.43,8.64,14.91s-3.87,7.69-8.64,4.93-8.65-9.43-8.65-14.91S399.46,564.08,404.24,566.84Z" transform="translate(-6 -230.06)"/><ellipse class="cls-14" cx="454" cy="665.64" rx="7.04" ry="12.19" transform="translate(-279.87 90.05) rotate(-30.31)"/><path class="cls-6" d="M457.14,667.45c0,2-1.41,2.79-3.14,1.79a6.92,6.92,0,0,1-3.14-5.41c0-2,1.41-2.79,3.14-1.79A6.92,6.92,0,0,1,457.14,667.45Z" transform="translate(-6 -230.06)"/><ellipse class="cls-14" cx="454" cy="548.51" rx="7.04" ry="12.19" transform="translate(-220.76 74.04) rotate(-30.31)"/><path class="cls-6" d="M457.14,550.32c0,2-1.41,2.79-3.14,1.79a6.92,6.92,0,0,1-3.14-5.41c0-2,1.41-2.79,3.14-1.79A6.93,6.93,0,0,1,457.14,550.32Z" transform="translate(-6 -230.06)"/><ellipse class="cls-14" cx="490.09" cy="669.32" rx="7.04" ry="12.19" transform="translate(-276.8 108.77) rotate(-30.31)"/><path class="cls-6" d="M492.31,668.06c1.22,2.11,1.22,4.39,0,5.09s-3.21-.45-4.44-2.56-1.22-4.39,0-5.09S491.08,666,492.31,668.06Z" transform="translate(-6 -230.06)"/><path class="cls-14" d="M424,541.35c3.37,5.82,3.37,12.1,0,14s-8.85-1.24-12.23-7.06-3.38-12.11,0-14S420.65,535.52,424,541.35Z" transform="translate(-6 -230.06)"/><path class="cls-6" d="M420.13,543.57c1.23,2.11,1.23,4.39,0,5.09s-3.21-.45-4.43-2.56-1.23-4.4,0-5.09S418.91,541.45,420.13,543.57Z" transform="translate(-6 -230.06)"/><path class="cls-14" d="M505,626.62c4.77,2.76,8.64,9.44,8.64,14.91s-3.87,7.69-8.64,4.93-8.65-9.43-8.65-14.91S500.26,623.87,505,626.62Z" transform="translate(-6 -230.06)"/><path class="cls-6" d="M505,632.94a6.92,6.92,0,0,1,3.13,5.41c0,2-1.4,2.79-3.13,1.79a6.92,6.92,0,0,1-3.14-5.41C501.9,632.74,503.31,631.94,505,632.94Z" transform="translate(-6 -230.06)"/><path class="cls-14" d="M403,567.69c4.78,2.76,8.65,9.43,8.65,14.91s-3.87,7.69-8.65,4.93-8.64-9.43-8.64-14.91S398.19,564.93,403,567.69Z" transform="translate(-6 -230.06)"/><path class="cls-6" d="M403,574a6.89,6.89,0,0,1,3.14,5.41c0,2-1.4,2.79-3.14,1.79a6.91,6.91,0,0,1-3.13-5.41C399.83,573.81,401.23,573,403,574Z" transform="translate(-6 -230.06)"/><path class="cls-6" d="M485.25,575.11c3.38-1.93,8.85,1.23,12.23,7.06s3.37,12.1,0,14-8.85-1.24-12.23-7.06S481.87,577,485.25,575.11Z" transform="translate(-6 -230.06)"/><path class="cls-14" d="M484,576c3.37-1.93,8.85,1.23,12.22,7.06s3.38,12.1,0,14S487.35,595.81,484,590,480.6,577.88,484,576Z" transform="translate(-6 -230.06)"/><path class="cls-6" d="M487.87,582.68c1.23-.7,3.21.44,4.44,2.56s1.22,4.39,0,5.09-3.21-.45-4.44-2.56S486.65,583.37,487.87,582.68Z" transform="translate(-6 -230.06)"/><path class="cls-14" d="M411.8,617.11c3.38-1.93,8.85,1.23,12.23,7.06s3.37,12.1,0,14-8.85-1.24-12.23-7.06S408.42,619,411.8,617.11Z" transform="translate(-6 -230.06)"/><ellipse class="cls-6" cx="417.91" cy="627.65" rx="2.55" ry="4.42" transform="translate(-265.64 66.65) rotate(-30.31)"/><polygon class="cls-6" points="471.08 462.24 421.28 291.13 422.2 290.59 543.16 219.82 544.55 222.18 424.5 292.42 473.72 461.47 471.08 462.24"/><polygon class="cls-6" points="509.57 385.41 385.83 370.99 386.15 368.26 509.02 382.59 629.82 316.19 631.14 318.59 509.57 385.41"/><polygon class="cls-6" points="508.5 443.77 507.75 442.96 385.55 312.53 387.55 310.66 508.99 440.29 629.78 368.02 631.18 370.37 508.5 443.77"/><polygon class="cls-6" points="422.79 432.45 420.32 431.27 472.67 320.8 473.03 320.59 591.56 249.13 592.97 251.47 474.8 322.72 422.79 432.45"/><ellipse class="cls-41" cx="454" cy="607.08" rx="32.28" ry="55.91" transform="translate(-250.32 82.06) rotate(-30.31)"/><path class="cls-42" d="M456.67,529c-17.69-10.22-33.77-11.6-45.73-5.62,11.15-3.12,25-.79,40,7.86,36.92,21.31,66.84,72.93,66.84,115.29,0,22.05-8.12,37.23-21.11,43.72,16.32-4.56,26.88-20.8,26.88-46C523.51,601.93,493.59,550.32,456.67,529Z" transform="translate(-6 -230.06)"/><path class="cls-6" d="M523.31,611.34a1.38,1.38,0,0,1-1.33-1c-5.81-22.25-18.27-45.05-34.19-62.57a1.37,1.37,0,0,1,2-1.84c16.2,17.83,28.89,41.05,34.81,63.72a1.36,1.36,0,0,1-1,1.67A1.32,1.32,0,0,1,523.31,611.34Z" transform="translate(-6 -230.06)"/><path class="cls-6" d="M528.23,608.51a1.35,1.35,0,0,1-1.32-1c-5.82-22.27-18.3-45.1-34.24-62.64a1.37,1.37,0,0,1,2-1.84c16.18,17.89,28.93,41.1,34.85,63.79a1.36,1.36,0,0,1-1,1.67A1.45,1.45,0,0,1,528.23,608.51Z" transform="translate(-6 -230.06)"/><path class="cls-6" d="M533.15,605.69a1.36,1.36,0,0,1-1.32-1c-5.83-22.3-18.32-45.15-34.27-62.71a1.37,1.37,0,0,1,2-1.84c16.21,17.91,29,41.15,34.9,63.86a1.38,1.38,0,0,1-1,1.67A1.41,1.41,0,0,1,533.15,605.69Z" transform="translate(-6 -230.06)"/><path class="cls-6" d="M538.08,602.86a1.38,1.38,0,0,1-1.33-1c-5.83-22.33-18.34-45.21-34.31-62.79a1.37,1.37,0,0,1,2-1.84c16.22,17.93,29,41.19,34.93,63.94a1.36,1.36,0,0,1-1,1.66A1,1,0,0,1,538.08,602.86Z" transform="translate(-6 -230.06)"/><path class="cls-6" d="M543,600a1.35,1.35,0,0,1-1.32-1c-5.84-22.35-18.37-45.26-34.36-62.86a1.38,1.38,0,0,1,.1-1.94,1.36,1.36,0,0,1,1.93.1c16.24,18,29,41.24,35,64a1.36,1.36,0,0,1-1,1.67A1.45,1.45,0,0,1,543,600Z" transform="translate(-6 -230.06)"/><path class="cls-6" d="M547.92,597.21a1.36,1.36,0,0,1-1.32-1c-5.85-22.38-18.38-45.31-34.39-62.93a1.37,1.37,0,1,1,2-1.84c16.26,18,29.06,41.29,35,64.08a1.38,1.38,0,0,1-1,1.67A1.41,1.41,0,0,1,547.92,597.21Z" transform="translate(-6 -230.06)"/><path class="cls-6" d="M552.85,594.38a1.38,1.38,0,0,1-1.33-1c-5.85-22.4-18.4-45.36-34.43-63a1.37,1.37,0,1,1,2-1.84c16.27,18,29.09,41.34,35,64.16a1.36,1.36,0,0,1-1,1.66A1.33,1.33,0,0,1,552.85,594.38Z" transform="translate(-6 -230.06)"/><path class="cls-6" d="M557.77,591.55a1.35,1.35,0,0,1-1.32-1C550.59,568.1,538,545.11,522,527.45a1.37,1.37,0,1,1,2-1.84c16.29,18,29.13,41.38,35.1,64.23a1.38,1.38,0,0,1-1,1.67A1.45,1.45,0,0,1,557.77,591.55Z" transform="translate(-6 -230.06)"/><path class="cls-6" d="M562.69,588.73a1.36,1.36,0,0,1-1.32-1c-5.87-22.45-18.45-45.47-34.51-63.16a1.37,1.37,0,0,1,2-1.84C545.2,540.74,558,564.14,564,587a1.38,1.38,0,0,1-1,1.67A1.41,1.41,0,0,1,562.69,588.73Z" transform="translate(-6 -230.06)"/><path class="cls-6" d="M567.62,585.9a1.38,1.38,0,0,1-1.33-1c-5.87-22.48-18.47-45.53-34.55-63.23a1.36,1.36,0,0,1,.09-1.93,1.38,1.38,0,0,1,1.94.09c16.33,18.06,29.19,41.49,35.17,64.38a1.37,1.37,0,0,1-1,1.67A1.33,1.33,0,0,1,567.62,585.9Z" transform="translate(-6 -230.06)"/><path class="cls-6" d="M572.54,583.07a1.37,1.37,0,0,1-1.32-1c-5.89-22.51-18.49-45.59-34.6-63.31a1.37,1.37,0,0,1,2-1.84C555,535,567.88,558.43,573.87,581.36a1.38,1.38,0,0,1-1,1.67A1.45,1.45,0,0,1,572.54,583.07Z" transform="translate(-6 -230.06)"/><path class="cls-6" d="M577.46,580.24a1.36,1.36,0,0,1-1.32-1c-5.89-22.53-18.51-45.64-34.63-63.38a1.37,1.37,0,0,1,2-1.84c16.37,18.1,29.26,41.58,35.26,64.53a1.38,1.38,0,0,1-1,1.67A1.39,1.39,0,0,1,577.46,580.24Z" transform="translate(-6 -230.06)"/><path class="cls-6" d="M582.39,577.42a1.38,1.38,0,0,1-1.33-1c-5.89-22.56-18.53-45.69-34.67-63.45a1.37,1.37,0,0,1,2-1.84c16.38,18.12,29.29,41.63,35.29,64.6a1.38,1.38,0,0,1-1,1.67A1.33,1.33,0,0,1,582.39,577.42Z" transform="translate(-6 -230.06)"/><path class="cls-6" d="M587.31,574.59a1.37,1.37,0,0,1-1.32-1C580.08,551,567.43,527.82,551.27,510a1.37,1.37,0,0,1,2-1.84c16.4,18.14,29.33,41.67,35.34,64.68a1.36,1.36,0,0,1-1,1.66A1.1,1.1,0,0,1,587.31,574.59Z" transform="translate(-6 -230.06)"/><path class="cls-6" d="M592.24,571.76a1.37,1.37,0,0,1-1.33-1c-5.91-22.61-18.58-45.8-34.76-63.6a1.37,1.37,0,0,1,2-1.84c16.43,18.16,29.36,41.72,35.38,64.75a1.35,1.35,0,0,1-1.32,1.71Z" transform="translate(-6 -230.06)"/><path class="cls-6" d="M597.16,568.94a1.38,1.38,0,0,1-1.33-1c-5.91-22.64-18.6-45.85-34.79-63.67a1.37,1.37,0,0,1,2-1.84c16.44,18.18,29.39,41.77,35.41,64.82a1.38,1.38,0,0,1-1,1.67A1.33,1.33,0,0,1,597.16,568.94Z" transform="translate(-6 -230.06)"/><path class="cls-6" d="M602.08,566.11a1.36,1.36,0,0,1-1.32-1c-5.93-22.66-18.62-45.9-34.84-63.74a1.37,1.37,0,0,1,2-1.84c16.46,18.2,29.43,41.81,35.46,64.89a1.37,1.37,0,0,1-1,1.67A1.48,1.48,0,0,1,602.08,566.11Z" transform="translate(-6 -230.06)"/><path class="cls-6" d="M607,563.28a1.37,1.37,0,0,1-1.33-1c-5.93-22.69-18.64-46-34.88-63.82a1.37,1.37,0,1,1,2-1.84c16.48,18.22,29.46,41.86,35.5,65a1.35,1.35,0,0,1-1.32,1.71Z" transform="translate(-6 -230.06)"/><path class="cls-6" d="M611.93,560.46a1.38,1.38,0,0,1-1.33-1c-5.93-22.72-18.66-46-34.91-63.89a1.37,1.37,0,1,1,2-1.84c16.5,18.24,29.5,41.91,35.54,65a1.37,1.37,0,0,1-1,1.67A1.33,1.33,0,0,1,611.93,560.46Z" transform="translate(-6 -230.06)"/><path class="cls-6" d="M616.85,557.63a1.36,1.36,0,0,1-1.32-1c-5.95-22.74-18.69-46.06-35-64a1.37,1.37,0,1,1,2-1.84c16.51,18.26,29.53,41.95,35.58,65.11a1.37,1.37,0,0,1-1,1.67A1.48,1.48,0,0,1,616.85,557.63Z" transform="translate(-6 -230.06)"/><path class="cls-6" d="M621.78,554.8a1.38,1.38,0,0,1-1.33-1c-6-22.77-18.71-46.12-35-64a1.38,1.38,0,0,1,.1-1.94,1.36,1.36,0,0,1,1.93.1c16.54,18.28,29.56,42,35.62,65.19a1.38,1.38,0,0,1-1,1.67A1.32,1.32,0,0,1,621.78,554.8Z" transform="translate(-6 -230.06)"/><path class="cls-6" d="M626.7,552a1.35,1.35,0,0,1-1.32-1c-6-22.8-18.73-46.17-35-64.11a1.37,1.37,0,1,1,2-1.84c16.6,18.26,29.6,42,35.66,65.26a1.36,1.36,0,0,1-1,1.67A1.32,1.32,0,0,1,626.7,552Z" transform="translate(-6 -230.06)"/><path class="cls-43" d="M628.76,453.55c5.69,13.82-14.46,35.2-45,47.75S523.88,512.81,518.2,499s14.46-35.2,45-47.75S623.08,439.72,628.76,453.55Z" transform="translate(-6 -230.06)"/><path class="cls-44" d="M482.57,640c0,12.08-4.17,20.64-10.95,24.78-.2.13-81.42,48.09-81.63,48.21-7.06,3.94-2.55-5-13.26-11.19-21.56-12.45-39-42.6-39-67.34,0-12.23-11.31-12.33-4.39-16.41l83-48.4c7-3.81,16.65-3.1,27.25,3C465.09,585.06,482.57,615.21,482.57,640Z" transform="translate(-6 -230.06)"/><path class="cls-45" d="M482.57,640c0,12.08-4.17,20.64-10.95,24.78-.2.13-81.42,48.09-81.63,48.21-7.06,3.94-2.55-5-13.26-11.19-21.56-12.45-39-42.6-39-67.34,0-12.23-11.31-12.33-4.39-16.41l83-48.4c7-3.81,16.65-3.1,27.25,3C465.09,585.06,482.57,615.21,482.57,640Z" transform="translate(-6 -230.06)"/><ellipse class="cls-46" cx="360.92" cy="665.92" rx="31.77" ry="55.03" transform="translate(-292.75 43.12) rotate(-30.31)"/><path class="cls-47" d="M362.79,620.19c-10.33-6-19.72-6.77-26.71-3.28,6.51-1.82,14.59-.46,23.34,4.6,21.56,12.44,39,42.59,39,67.33,0,12.88-4.75,21.74-12.33,25.53,9.53-2.66,15.7-12.15,15.7-26.85C401.83,662.79,384.35,632.64,362.79,620.19Z" transform="translate(-6 -230.06)"/><rect class="cls-6" x="359.22" y="615.62" width="2.74" height="101.5" transform="translate(-177.89 -102.71) rotate(-16.23)"/><polygon class="cls-6" points="390.2 441.84 389.76 441.79 319.1 433.55 319.42 430.83 389.63 439.01 472.68 391.37 474.05 393.74 390.2 441.84"/><rect class="cls-6" x="359.22" y="615.16" width="2.74" height="102.41" transform="translate(-364.16 196.57) rotate(-43.13)"/><rect class="cls-6" x="325.68" y="665" width="69.81" height="2.74" transform="translate(-401.98 477.3) rotate(-64.68)"/><rect class="cls-6" x="359.22" y="612.7" width="2.74" height="107.33" transform="translate(-289.09 36.63) rotate(-29.74)"/><rect class="cls-6" x="329.59" y="665" width="61.99" height="2.74" transform="translate(-281.13 24.08) rotate(-28.62)"/><rect class="cls-6" x="359.22" y="622.17" width="2.74" height="88.39" transform="translate(-402.57 408.36) rotate(-59.47)"/><rect class="cls-6" x="317.15" y="665" width="86.89" height="2.74" transform="translate(-315.28 790.35) rotate(-89.44)"/><ellipse class="cls-48" cx="360.79" cy="666.49" rx="15.55" ry="26.94" transform="translate(-293.05 43.14) rotate(-30.31)"/><path class="cls-49" d="M409.33,610.92c2.74,6.67-7,17-21.72,23s-28.89,5.55-31.64-1.12,7-17,21.72-23S406.59,604.25,409.33,610.92Z" transform="translate(-6 -230.06)"/><polygon class="cls-20" points="558.15 529.28 625.54 490.37 625.52 487.99 469.39 400.21 401.92 436.54 402 439.12 558.15 529.28"/><polygon class="cls-22" points="558.15 526.65 625.54 487.74 469.39 397.59 402 436.5 558.15 526.65"/><polygon class="cls-50" points="621.72 487.59 469.66 399.8 405.82 436.66 557.87 524.45 621.72 487.59"/><polygon class="cls-22" points="590.19 507.27 591.97 506.24 437.35 416.98 435.57 418 590.19 507.27"/><polygon class="cls-22" points="480.38 480.22 482.43 481.4 547.16 444.03 545.11 442.84 480.38 480.22"/><polygon class="cls-20" points="713.64 622.36 781.04 583.45 781.02 581.07 624.88 493.3 557.42 529.62 557.49 532.21 713.64 622.36"/><polygon class="cls-22" points="713.64 619.74 781.04 580.83 624.88 490.67 557.49 529.58 713.64 619.74"/><polygon class="cls-51" points="777.22 580.67 625.16 492.88 561.31 529.74 713.37 617.53 777.22 580.67"/><polygon class="cls-22" points="745.69 600.35 747.46 599.33 592.84 510.06 591.07 511.08 745.69 600.35"/><polygon class="cls-22" points="635.87 573.3 637.92 574.49 702.66 537.11 700.61 535.93 635.87 573.3"/><path class="cls-52" d="M374.12,678.73c0,5.09-1.75,8.69-4.61,10.43L345.18,703.5c-3,1.66-1.07-2.11-5.58-4.71-9.07-5.24-16.43-17.93-16.43-28.34,0-5.14-4.76-5.19-1.84-6.9.08,0,24.81-14.38,24.9-14.42,3-1.6,7-1.31,11.46,1.27C366.77,655.63,374.12,668.32,374.12,678.73Z" transform="translate(-6 -230.06)"/><path class="cls-53" d="M349.37,693.2c0,10.41-7.35,14.6-16.43,9.36s-16.42-17.92-16.42-28.33,7.35-14.6,16.42-9.37S349.37,682.79,349.37,693.2Z" transform="translate(-6 -230.06)"/><path class="cls-54" d="M333.73,664.47c-4.35-2.51-8.3-2.85-11.24-1.38,2.74-.77,6.14-.19,9.82,1.93,9.08,5.24,16.43,17.93,16.43,28.34,0,5.42-2,9.15-5.19,10.74,4-1.12,6.61-5.11,6.61-11.3C350.16,682.39,342.81,669.71,333.73,664.47Z" transform="translate(-6 -230.06)"/><path class="cls-55" d="M355,659.07c1.39,3.39-3.56,8.65-11.06,11.73s-14.72,2.83-16.12-.57,3.56-8.65,11.06-11.73S353.55,655.67,355,659.07Z" transform="translate(-6 -230.06)"/></g></g></svg>